<svg xmlns="http://www.w3.org/2000/svg" xmlns:xlink="http://www.w3.org/1999/xlink" viewBox="0 0 924.698 500" style="fill: rgb(0, 0, 0);" original_string_length="5452" width="327.2206971336121px" height="176.8760525046552px"><path d="M0 492.379H924.698V500H0z" style="fill: rgb(246, 244, 242);"/><g><g><path d="m459.65688,0l-230.09039,134.74866v330.22064h548.22197V202.93164L459.65688,0Z" fill-rule="evenodd" style="fill: rgb(246, 244, 242);"/><path d="m162.42566,224.35548l67.2509-89.83412v330.22064h-67.2509v-240.38652Z" fill-rule="evenodd" style="fill: rgb(39, 89, 92);"/><path d="m242.5635,227.27162l19.46185-42.47855v279.94893h-19.46185v-237.47038Z" fill-rule="evenodd" style="fill: rgb(237, 162, 102);"/><g fill-rule="evenodd"><path d="m777.78846,464.96922v-219.70592c-23.55456,14.57204-37.85034,34.30116-45.34848,60.98184-7.51014,26.72356-4.60979,56.22953,7.96003,80.97926,7.13863,14.05599,17.17534,26.47414,24.42086,40.47538,5.92742,11.45399,9.89502,24.70353,8.23035,37.26944h4.73723Z" style="fill: rgb(95, 148, 143);"/><g><path d="m785.23509,400.97706v63.99224h5.98972v-64.78716c5.59664-9.47097,17.67008-17.45072,27.40198-48.35928,8.51953-27.05115,3.29375-59.2783-3.14434-77.01869-18.45618-50.83024-50.03768-32.70781-61.57417-1.85476-8.84612,23.64972-9.8315,53.92357-1.89879,78.57153,9.98098,31.001,25.8741,39.4614,33.2256,49.45613Z" style="fill: rgb(246, 244, 242);"/><path d="m782.35678,397.5269c-8.07893-8.80485-21.52194-18.59796-30.34729-46.00597-7.93271-24.64796-6.94733-54.92181,1.89879-78.57153,7.00828-18.73863,21.40678-32.78175,35.77203-29.53437-14.13279,5.18218-16.87851,31.6849-15.59424,48.26066,1.44482,18.59075,9.65993,35.40676,14.58122,52.98694,4.36319,15.58741,7.00056,31.72565,2.62146,51.99118-.71565,3.31187-6.08016,3.98115-8.93197.87309Z" style="fill: rgb(237, 162, 102);"/></g></g><path d="m816.39866,424.39256v50.18271h3.83731v-50.68676c3.58549-6.00544,11.32033-11.0653,17.55507-30.66406,5.45804-17.15282,2.11014-37.58769-2.01442-48.83666-11.82395-32.23087-32.05663-20.73964-39.44748-1.17608-5.66727,14.99601-6.29855,34.19231-1.21646,49.8213,6.39431,19.65738,16.57624,25.02202,21.28598,31.35956Z" fill-rule="evenodd" style="fill: rgb(246, 244, 242);"/><path d="M291.45683 134.1524L291.45683 184.19167 352.19519 184.19167 352.19519 134.1524 374.05872 134.1524 374.05872 120.26412 254.02503 120.26412 230.31014 134.1524 291.45683 134.1524z" fill-rule="evenodd" style="fill: rgb(95, 148, 143);"/><path d="m712.89124,216.96858l-100.88719-56.15453-70.78566,34.69544v269.22944h171.67285v-247.77035Z" fill-rule="evenodd" style="fill: rgb(39, 89, 92);"/><path d="m505.60809,35.92368l-243.58059,148.86939v279.94893h243.58059V35.92368Z" fill-rule="evenodd" style="fill: rgb(39, 89, 92);"/><path d="M289.13694 464.78241L272.88346 464.78241 272.88346 208.63262 289.13694 198.69652 289.13694 464.78241z" fill-rule="evenodd" style="fill: rgb(237, 162, 102);"/><path d="M364.12253 464.78241L331.63067 464.78241 331.63067 172.72421 364.12253 152.86719 364.12253 464.78241z" fill-rule="evenodd" style="fill: rgb(246, 244, 242);"/><path d="M619.59511 178.73606L590.09521 193.03105 590.09521 464.742 619.59511 464.742 619.59511 178.73606z" fill-rule="evenodd" style="fill: rgb(246, 244, 242);"/><path d="M658.7987 208.33439L658.7987 464.742 701.77759 464.742 701.77759 232.25482 658.7987 208.33439z" fill-rule="evenodd" style="fill: rgb(246, 244, 242);"/><path d="M658.79876 208.33438L658.79876 215.04591 692.75763 233.94602 692.75763 464.74202 701.77768 464.74202 701.77768 232.25475 658.79876 208.33438z" fill-rule="evenodd" style="fill: rgb(237, 162, 102);"/><path d="M611.97054 182.4308L611.97054 464.74202 619.59517 464.74202 619.59517 178.73601 611.97054 182.4308z" fill-rule="evenodd" style="fill: rgb(237, 162, 102);"/><g><path d="m169.79458,464.74202h7.27034c2.57254-27.15398,2.02027-54.60405-1.70565-81.62418-2.34011-16.97094-5.91899-33.8123-6.76593-50.92292-.84706-17.11061-.06758-33.38937,8.20886-48.38897-13.14039-.08646-24.55317,6.62519-32.11865,17.36953-7.56548,10.74434-11.09412,23.81074-13.21391,36.7794-3.50417,21.43797-2.98823,45.16712,9.94384,62.62074,6.16876,8.32561,14.8015,14.68701,20.34351,23.44232,7.52688,11.8907,8.38927,26.45395,8.03759,40.72408Z" style="fill: rgb(95, 148, 143);"/><g fill-rule="evenodd"><path d="m174.09873,412.48395v52.48535h5.46842v-53.13733c5.10955-7.76793,16.1322-14.31279,25.0171-39.66346,7.77805-22.18689,3.00708-48.61906-2.87068-63.16943-16.84988-41.6901-45.68274-26.82639-56.21518-1.52125-8.07622,19.3971-8.97584,44.2272-1.73354,64.44304,9.1123,25.4265,23.6222,32.36557,30.33387,40.56308Z" style="fill: rgb(246, 244, 242);"/><path d="m172.56316,410.75787c-7.20138-7.54134-20.32889-15.20751-28.7983-38.83701-7.2423-20.21584-6.34268-45.04594,1.73354-64.44304,6.39833-15.36911,19.54368-26.88704,32.65868-24.22359-12.90277,4.25034-15.40952,25.98742-14.23703,39.58258,1.31908,15.24782,8.8192,29.04003,13.31217,43.45899,3.8189,12.25642,6.56402,25.0124,2.8563,40.5996-1.54365,6.4895-5.45747,6.02798-7.52537,3.86247Z" style="fill: rgb(237, 162, 102);"/></g></g><path d="m196.83526,440.59332v24.37598h5.53802v-24.77488c2.74863-4.78981,7.62392-8.82545,12.39874-24.457,4.17999-13.68385,1.80346-25.30156-1.35802-34.27347-9.05531-25.70666-24.55032-16.54466-30.21054-.93802-4.34026,11.9605-5.0084,22.59032-1.11632,35.05879,4.89703,15.67515,11.14121,19.95699,14.74813,25.0086Z" fill-rule="evenodd" style="fill: rgb(246, 244, 242);"/></g><path d="m848.618,492.37879c0-40.53745-184.35175-37.67397-388.50186-37.67397s-382.39193,2.0294-388.50174,37.67397h777.00361Z" style="fill: rgb(95, 148, 143);"/></g></svg>